<svg width="800" height="800" viewBox="0 0 800 800" fill="none" xmlns="http://www.w3.org/2000/svg">
<path d="M733.333 233.333H433.333V66.6667C433.333 57.8262 429.821 49.3477 423.57 43.0965C417.319 36.8453 408.84 33.3334 400 33.3334H66.6666C57.826 33.3334 49.3476 36.8453 43.0964 43.0965C36.8451 49.3477 33.3333 57.8262 33.3333 66.6667V733.333C33.3333 742.174 36.8451 750.652 43.0964 756.904C49.3476 763.155 57.826 766.667 66.6666 766.667H733.333C742.174 766.667 750.652 763.155 756.903 756.904C763.155 750.652 766.667 742.174 766.667 733.333V266.667C766.667 257.826 763.155 249.348 756.903 243.096C750.652 236.845 742.174 233.333 733.333 233.333ZM366.667 433.333H99.9999V366.667H366.667V433.333ZM366.667 266.667V300H99.9999V233.333H366.667V266.667ZM99.9999 500H366.667V566.667H99.9999V500ZM366.667 100V166.667H99.9999V100H366.667ZM99.9999 633.333H366.667V700H99.9999V633.333ZM700 700H433.333V300H700V700ZM533.333 533.333H466.667V466.667H533.333V533.333ZM533.333 666.667H466.667V600H533.333V666.667ZM666.667 533.333H600V466.667H666.667V533.333ZM533.333 400H466.667V333.333H533.333V400ZM666.667 400H600V333.333H666.667V400ZM666.667 666.667H600V600H666.667V666.667Z" fill="#020255"/>
</svg>
