<svg width="800" height="800" viewBox="0 0 800 800" fill="none" xmlns="http://www.w3.org/2000/svg">
<path d="M699.733 332.667C699.838 293.31 692.19 254.317 677.226 217.916C662.262 181.514 640.274 148.416 612.519 120.512C556.464 64.1578 480.319 32.3789 400.833 32.1667C321.348 31.9545 245.034 63.3265 188.679 119.381C132.324 175.436 100.546 251.581 100.333 331.067C99.6294 423.408 126.435 513.867 177.335 590.916C228.234 667.966 300.921 728.116 386.133 763.7C390.489 765.672 395.218 766.684 400 766.667C404.816 766.675 409.579 765.652 413.967 763.667C498.919 728.19 571.427 668.292 622.301 591.563C673.175 514.834 700.124 424.728 699.733 332.667ZM400 696.667C329.731 665.73 270.143 614.762 228.689 550.138C187.235 485.514 165.754 410.102 166.933 333.333C166.933 302.727 172.962 272.42 184.674 244.143C196.387 215.866 213.555 190.173 235.197 168.53C256.839 146.888 282.532 129.721 310.809 118.008C339.086 106.295 369.393 100.267 400 100.267C430.607 100.267 460.914 106.295 489.191 118.008C517.468 129.721 543.161 146.888 564.803 168.53C586.445 190.173 603.613 215.866 615.326 244.143C627.038 272.42 633.067 302.727 633.067 333.333C633.067 334.033 633.067 334.833 633.067 335.5C633.875 411.914 612.216 486.881 570.781 551.09C529.346 615.299 469.96 665.921 400 696.667ZM466.667 333.333C466.667 346.519 462.757 359.408 455.431 370.371C448.106 381.335 437.694 389.879 425.512 394.925C413.33 399.971 399.926 401.291 386.994 398.719C374.062 396.147 362.183 389.797 352.86 380.474C343.536 371.15 337.187 359.271 334.614 346.339C332.042 333.407 333.362 320.003 338.408 307.821C343.454 295.639 351.999 285.227 362.962 277.902C373.925 270.577 386.815 266.667 400 266.667C417.681 266.667 434.638 273.69 447.14 286.193C459.643 298.695 466.667 315.652 466.667 333.333Z" fill="#020255"/>
</svg>
