<svg width="325" height="105" viewBox="0 0 325 105" fill="none" xmlns="http://www.w3.org/2000/svg">
<g clip-path="url(#clip0_8_13)">
<path d="M6.2 34L6.4 32.95L7.65 32.5C8.11667 32.3667 8.48333 32.1333 8.75 31.8C9.05 31.4333 9.25 31.0333 9.35 30.6L12 16.45C12.3333 14.6167 12.6833 12.65 13.05 10.55C13.45 8.41666 13.8 6.38333 14.1 4.45C14.2 3.98333 14.1167 3.55 13.85 3.15C13.6167 2.71666 13.2667 2.43333 12.8 2.3L11.9 2L12.15 0.949999H23.9L23.65 2L22.45 2.4C21.4833 2.66667 20.9167 3.3 20.75 4.3L18.05 18.5C17.7167 20.3333 17.3667 22.3 17 24.4C16.6333 26.5 16.2667 28.5 15.9 30.4C15.8333 30.9 15.9167 31.35 16.15 31.75C16.3833 32.15 16.7167 32.4333 17.15 32.6L18.2 32.95L17.95 34H6.2ZM44.9785 34.25L30.8285 7.45L26.5785 29.95C26.3118 31.3167 26.8452 32.2333 28.1785 32.7L29.0785 32.95L28.8785 34H21.2785L21.4785 32.95L22.5285 32.6C23.8618 32.2 24.6452 31.3333 24.8785 30L29.6785 4.75L29.2285 3.9C28.9952 3.43333 28.7285 3.08333 28.4285 2.85C28.1285 2.58333 27.7452 2.33333 27.2785 2.1L26.9285 2L27.1285 0.949999H34.6785L47.6285 25.25L51.4785 4.8C51.7119 3.5 51.2119 2.65 49.9785 2.25L49.2285 2L49.4285 0.949999H56.6785L56.4785 2L55.4785 2.3C54.1785 2.7 53.4119 3.55 53.1785 4.85L47.6785 34.25H44.9785ZM53.075 34L53.275 32.95L53.975 32.7C55.3083 32.2 56.0917 31.3 56.325 30L58.875 16.45C59.2083 14.6833 59.5417 12.8 59.875 10.8C60.2417 8.76667 60.5917 6.81666 60.925 4.95C61.125 3.61666 60.6083 2.71666 59.375 2.25L58.775 2L59.025 0.949999H70.475C73.8083 0.949999 76.6083 1.55 78.875 2.75C81.175 3.91667 82.9083 5.55 84.075 7.65C85.2417 9.75 85.825 12.15 85.825 14.85C85.825 17.8833 85.2917 20.5833 84.225 22.95C83.1583 25.3167 81.6917 27.3333 79.825 29C77.9917 30.6333 75.8583 31.8833 73.425 32.75C71.025 33.5833 68.475 34 65.775 34H53.075ZM62.425 32.55H65.375C68.2417 32.55 70.675 31.75 72.675 30.15C74.7083 28.5167 76.2583 26.3333 77.325 23.6C78.3917 20.8667 78.925 17.8167 78.925 14.45C78.925 10.4833 78.125 7.51666 76.525 5.55C74.925 3.58333 72.6083 2.53333 69.575 2.4H67.975L64.925 18.5C64.4917 20.8333 64.0583 23.1667 63.625 25.5C63.1917 27.8333 62.7917 30.1833 62.425 32.55ZM85.2527 34L85.4527 32.95L86.3027 32.7C87.4694 32.3667 88.1861 31.5667 88.4527 30.3L91.0527 16.45C91.3861 14.6833 91.7194 12.7833 92.0527 10.75C92.4194 8.71667 92.7694 6.76667 93.1027 4.9C93.3361 3.53333 92.7861 2.61667 91.4527 2.15L90.9527 2L91.2027 0.949999H113.603L112.353 9.65H111.053L110.153 5.55C109.919 4.48333 109.503 3.7 108.903 3.2C108.336 2.7 107.469 2.45 106.303 2.45H100.153L97.5527 16.3H101.803C103.236 16.3 104.369 15.6833 105.203 14.45L106.753 12.15H107.803L106.003 21.8H104.953L104.403 19.95C103.969 18.4833 103.003 17.75 101.503 17.75H97.2527C96.8194 20.0833 96.3694 22.5167 95.9027 25.05C95.4361 27.5833 95.0194 30.0667 94.6527 32.5H102.403C103.436 32.5 104.319 32.3 105.053 31.9C105.786 31.5 106.469 30.8167 107.103 29.85L110.103 25.3H111.403L109.403 34H85.2527ZM112.841 34L113.041 32.95L113.591 32.8C114.957 32.4 115.791 31.4833 116.091 30.05L118.641 16.45C119.007 14.65 119.357 12.8167 119.691 10.95C120.024 9.05 120.374 7.03333 120.741 4.9C120.941 3.46667 120.374 2.55 119.041 2.15L118.541 2L118.791 0.949999H129.541C133.774 0.949999 136.857 1.78333 138.791 3.45C140.724 5.08333 141.691 7.23333 141.691 9.9C141.691 11.9 141.124 13.75 139.991 15.45C138.891 17.15 137.224 18.5167 134.991 19.55C132.757 20.5833 129.957 21.1 126.591 21.1H124.241C124.007 22.4333 123.757 23.85 123.491 25.35C123.224 26.85 122.957 28.3833 122.691 29.95C122.391 31.4167 122.974 32.3667 124.441 32.8L125.091 32.95L124.891 34H112.841ZM124.541 19.6H126.491C129.124 19.6 131.207 18.7333 132.741 17C134.307 15.2333 135.091 12.8333 135.091 9.8C135.091 7.4 134.574 5.56666 133.541 4.3C132.507 3.03333 131.024 2.4 129.091 2.4H127.741C127.207 5.26667 126.674 8.13333 126.141 11C125.607 13.8667 125.074 16.7333 124.541 19.6ZM139.94 34L140.14 32.95L140.99 32.7C142.157 32.3667 142.874 31.5667 143.14 30.3L145.74 16.45C146.074 14.6833 146.407 12.7833 146.74 10.75C147.107 8.71667 147.457 6.76667 147.79 4.9C148.024 3.53333 147.474 2.61667 146.14 2.15L145.64 2L145.89 0.949999H168.29L167.04 9.65H165.74L164.84 5.55C164.607 4.48333 164.19 3.7 163.59 3.2C163.024 2.7 162.157 2.45 160.99 2.45H154.84L152.24 16.3H156.49C157.924 16.3 159.057 15.6833 159.89 14.45L161.44 12.15H162.49L160.69 21.8H159.64L159.09 19.95C158.657 18.4833 157.69 17.75 156.19 17.75H151.94C151.507 20.0833 151.057 22.5167 150.59 25.05C150.124 27.5833 149.707 30.0667 149.34 32.5H157.09C158.124 32.5 159.007 32.3 159.74 31.9C160.474 31.5 161.157 30.8167 161.79 29.85L164.79 25.3H166.09L164.09 34H139.94ZM190.926 34.25L176.776 7.45L172.526 29.95C172.259 31.3167 172.792 32.2333 174.126 32.7L175.026 32.95L174.826 34H167.226L167.426 32.95L168.476 32.6C169.809 32.2 170.592 31.3333 170.826 30L175.626 4.75L175.176 3.9C174.942 3.43333 174.676 3.08333 174.376 2.85C174.076 2.58333 173.692 2.33333 173.226 2.1L172.876 2L173.076 0.949999H180.626L193.576 25.25L197.426 4.8C197.659 3.5 197.159 2.65 195.926 2.25L195.176 2L195.376 0.949999H202.626L202.426 2L201.426 2.3C200.126 2.7 199.359 3.55 199.126 4.85L193.626 34.25H190.926ZM199.022 34L199.222 32.95L199.922 32.7C201.256 32.2 202.039 31.3 202.272 30L204.822 16.45C205.156 14.6833 205.489 12.8 205.822 10.8C206.189 8.76667 206.539 6.81666 206.872 4.95C207.072 3.61666 206.556 2.71666 205.322 2.25L204.722 2L204.972 0.949999H216.422C219.756 0.949999 222.556 1.55 224.822 2.75C227.122 3.91667 228.856 5.55 230.022 7.65C231.189 9.75 231.772 12.15 231.772 14.85C231.772 17.8833 231.239 20.5833 230.172 22.95C229.106 25.3167 227.639 27.3333 225.772 29C223.939 30.6333 221.806 31.8833 219.372 32.75C216.972 33.5833 214.422 34 211.722 34H199.022ZM208.372 32.55H211.322C214.189 32.55 216.622 31.75 218.622 30.15C220.656 28.5167 222.206 26.3333 223.272 23.6C224.339 20.8667 224.872 17.8167 224.872 14.45C224.872 10.4833 224.072 7.51666 222.472 5.55C220.872 3.58333 218.556 2.53333 215.522 2.4H213.922L210.872 18.5C210.439 20.8333 210.006 23.1667 209.572 25.5C209.139 27.8333 208.739 30.1833 208.372 32.55ZM231.2 34L231.4 32.95L232.25 32.7C233.417 32.3667 234.133 31.5667 234.4 30.3L237 16.45C237.333 14.6833 237.667 12.7833 238 10.75C238.367 8.71667 238.717 6.76667 239.05 4.9C239.283 3.53333 238.733 2.61667 237.4 2.15L236.9 2L237.15 0.949999H259.55L258.3 9.65H257L256.1 5.55C255.867 4.48333 255.45 3.7 254.85 3.2C254.283 2.7 253.417 2.45 252.25 2.45H246.1L243.5 16.3H247.75C249.183 16.3 250.317 15.6833 251.15 14.45L252.7 12.15H253.75L251.95 21.8H250.9L250.35 19.95C249.917 18.4833 248.95 17.75 247.45 17.75H243.2C242.767 20.0833 242.317 22.5167 241.85 25.05C241.383 27.5833 240.967 30.0667 240.6 32.5H248.35C249.383 32.5 250.267 32.3 251 31.9C251.733 31.5 252.417 30.8167 253.05 29.85L256.05 25.3H257.35L255.35 34H231.2ZM282.186 34.25L268.036 7.45L263.786 29.95C263.519 31.3167 264.052 32.2333 265.386 32.7L266.286 32.95L266.086 34H258.486L258.686 32.95L259.736 32.6C261.069 32.2 261.852 31.3333 262.086 30L266.886 4.75L266.436 3.9C266.202 3.43333 265.936 3.08333 265.636 2.85C265.336 2.58333 264.952 2.33333 264.486 2.1L264.136 2L264.336 0.949999H271.886L284.836 25.25L288.686 4.8C288.919 3.5 288.419 2.65 287.186 2.25L286.436 2L286.636 0.949999H293.886L293.686 2L292.686 2.3C291.386 2.7 290.619 3.55 290.386 4.85L284.886 34.25H282.186ZM297.026 34L297.226 32.95L298.426 32.6C299.926 32.1 300.826 31.0667 301.126 29.5L303.576 16.45C303.976 14.3167 304.393 11.9833 304.826 9.45C305.293 6.91667 305.693 4.58333 306.026 2.45H303.826C301.66 2.45 299.976 3.33333 298.776 5.1L295.276 10.1H293.976L295.876 0.949999H323.326L321.726 10.1H320.476L318.976 5.55C318.343 3.48333 316.926 2.45 314.726 2.45H312.676L309.626 18.5C309.293 20.2 308.96 22 308.626 23.9C308.293 25.8 307.96 27.65 307.626 29.45C307.393 31.0833 308.043 32.1833 309.576 32.75L310.326 32.95L310.126 34H297.026Z" fill="#D30102"/>
<path d="M210.8 58.476C209.101 58.476 207.617 58.1587 206.348 57.524C205.097 56.8707 204.127 55.9373 203.436 54.724C202.745 53.492 202.4 52.008 202.4 50.272C202.4 48.7227 202.661 47.2667 203.184 45.904C203.725 44.5413 204.481 43.3467 205.452 42.32C206.441 41.2747 207.599 40.4627 208.924 39.884C210.249 39.2867 211.705 38.988 213.292 38.988C214.225 38.988 215.112 39.0907 215.952 39.296C216.792 39.5013 217.651 39.8467 218.528 40.332L217.856 44.616H217.1L216.4 41.9C216.213 41.116 215.877 40.5747 215.392 40.276C214.925 39.9773 214.281 39.828 213.46 39.828C212.023 39.828 210.753 40.276 209.652 41.172C208.569 42.0493 207.72 43.2813 207.104 44.868C206.507 46.436 206.208 48.256 206.208 50.328C206.208 52.5867 206.665 54.3787 207.58 55.704C208.513 57.0107 209.829 57.664 211.528 57.664C212.237 57.664 212.797 57.5333 213.208 57.272C213.637 56.992 214.011 56.5813 214.328 56.04L216.12 52.904H216.876L216.204 57.16C215.457 57.5333 214.673 57.8413 213.852 58.084C213.031 58.3453 212.013 58.476 210.8 58.476ZM226.025 58.476C224.681 58.476 223.486 58.1867 222.441 57.608C221.414 57.0107 220.602 56.1427 220.005 55.004C219.408 53.8653 219.109 52.456 219.109 50.776C219.109 49.2267 219.352 47.752 219.837 46.352C220.322 44.9333 221.013 43.6733 221.909 42.572C222.824 41.4707 223.906 40.6027 225.157 39.968C226.426 39.3333 227.836 39.016 229.385 39.016C230.785 39.016 231.998 39.3333 233.025 39.968C234.07 40.584 234.882 41.4707 235.461 42.628C236.04 43.7667 236.329 45.12 236.329 46.688C236.329 48.2747 236.086 49.7773 235.601 51.196C235.116 52.6147 234.416 53.8747 233.501 54.976C232.605 56.0587 231.522 56.9173 230.253 57.552C229.002 58.168 227.593 58.476 226.025 58.476ZM226.305 57.636C227.164 57.636 227.966 57.3373 228.713 56.74C229.478 56.124 230.15 55.284 230.729 54.22C231.308 53.156 231.756 51.9333 232.073 50.552C232.409 49.152 232.577 47.6587 232.577 46.072C232.577 44.0747 232.316 42.544 231.793 41.48C231.27 40.3973 230.402 39.856 229.189 39.856C228.33 39.856 227.518 40.1547 226.753 40.752C225.988 41.3493 225.306 42.1707 224.709 43.216C224.13 44.2613 223.673 45.484 223.337 46.884C223.001 48.2653 222.833 49.7493 222.833 51.336C222.833 53.352 223.113 54.9107 223.673 56.012C224.233 57.0947 225.11 57.636 226.305 57.636ZM244.649 58.476C242.782 58.476 241.27 58.0187 240.113 57.104C238.974 56.1707 238.405 54.78 238.405 52.932C238.405 52.5213 238.433 52.092 238.489 51.644C238.545 51.196 238.61 50.7387 238.685 50.272L239.105 47.976C239.273 47.0427 239.45 46.044 239.637 44.98C239.842 43.8973 240.038 42.852 240.225 41.844C240.355 40.9667 240.001 40.3973 239.161 40.136L238.937 40.08L239.049 39.492H245.965L245.853 40.08L245.545 40.164C244.723 40.4067 244.229 40.948 244.061 41.788L242.493 50.104C242.418 50.5333 242.353 50.972 242.297 51.42C242.241 51.8493 242.213 52.2973 242.213 52.764C242.213 53.9773 242.53 54.9293 243.165 55.62C243.818 56.292 244.714 56.628 245.853 56.628C247.327 56.628 248.485 56.152 249.325 55.2C250.183 54.248 250.781 52.8853 251.117 51.112L252.881 41.816C253.049 40.9573 252.713 40.3973 251.873 40.136L251.677 40.08L251.789 39.492H255.737L255.625 40.08L255.373 40.164C254.551 40.388 254.057 40.9293 253.889 41.788L252.125 51.392C251.714 53.6507 250.874 55.396 249.605 56.628C248.354 57.86 246.702 58.476 244.649 58.476ZM253.803 58L253.915 57.412L254.307 57.272C255.054 57.048 255.493 56.5533 255.623 55.788L257.051 48.172C257.238 47.1267 257.425 46.0533 257.611 44.952C257.817 43.8507 258.013 42.768 258.199 41.704C258.33 40.9387 258.031 40.4253 257.303 40.164L256.995 40.08L257.135 39.492H264.107C266.179 39.492 267.719 39.884 268.727 40.668C269.735 41.4333 270.239 42.4787 270.239 43.804C270.239 44.9613 269.838 45.9973 269.035 46.912C268.233 47.808 267.085 48.452 265.591 48.844L268.447 55.872C268.709 56.5627 269.185 57.048 269.875 57.328L270.155 57.412L270.015 58H265.199L262.259 49.46H260.411C260.225 50.4307 260.038 51.448 259.851 52.512C259.683 53.576 259.497 54.6773 259.291 55.816C259.161 56.544 259.459 57.0387 260.187 57.3L260.523 57.412L260.411 58H253.803ZM260.579 48.648H262.063C263.594 48.6293 264.733 48.1907 265.479 47.332C266.245 46.4733 266.627 45.316 266.627 43.86C266.627 41.4893 265.563 40.304 263.435 40.304H262.147L260.579 48.648ZM271.194 58L271.306 57.412L272.006 57.16C272.267 57.0853 272.473 56.9547 272.622 56.768C272.79 56.5627 272.902 56.3387 272.958 56.096L274.442 48.172C274.629 47.1453 274.825 46.044 275.03 44.868C275.254 43.6733 275.45 42.5347 275.618 41.452C275.674 41.1907 275.627 40.948 275.478 40.724C275.347 40.4813 275.151 40.3227 274.89 40.248L274.386 40.08L274.526 39.492H281.106L280.966 40.08L280.294 40.304C279.753 40.4533 279.435 40.808 279.342 41.368L277.83 49.32C277.643 50.3467 277.447 51.448 277.242 52.624C277.037 53.8 276.831 54.92 276.626 55.984C276.589 56.264 276.635 56.516 276.766 56.74C276.897 56.964 277.083 57.1227 277.326 57.216L277.914 57.412L277.774 58H271.194ZM279.862 58L279.974 57.412L280.45 57.272C281.103 57.0853 281.505 56.6373 281.654 55.928L283.11 48.172C283.297 47.1827 283.483 46.1187 283.67 44.98C283.875 43.8413 284.071 42.7493 284.258 41.704C284.389 40.9387 284.081 40.4253 283.334 40.164L283.054 40.08L283.194 39.492H295.738L295.038 44.364H294.31L293.806 42.068C293.675 41.4707 293.442 41.032 293.106 40.752C292.789 40.472 292.303 40.332 291.65 40.332H288.206L286.75 48.088H289.13C289.933 48.088 290.567 47.7427 291.034 47.052L291.902 45.764H292.49L291.482 51.168H290.894L290.586 50.132C290.343 49.3107 289.802 48.9 288.962 48.9H286.582C286.339 50.2067 286.087 51.5693 285.826 52.988C285.565 54.4067 285.331 55.7973 285.126 57.16H289.466C290.045 57.16 290.539 57.048 290.95 56.824C291.361 56.6 291.743 56.2173 292.098 55.676L293.778 53.128H294.506L293.386 58H279.862ZM295.311 58L295.423 57.412L295.815 57.272C296.562 57.048 297.001 56.5533 297.131 55.788L298.559 48.172C298.746 47.1267 298.933 46.0533 299.119 44.952C299.325 43.8507 299.521 42.768 299.707 41.704C299.838 40.9387 299.539 40.4253 298.811 40.164L298.503 40.08L298.643 39.492H305.615C307.687 39.492 309.227 39.884 310.235 40.668C311.243 41.4333 311.747 42.4787 311.747 43.804C311.747 44.9613 311.346 45.9973 310.543 46.912C309.741 47.808 308.593 48.452 307.099 48.844L309.955 55.872C310.217 56.5627 310.693 57.048 311.383 57.328L311.663 57.412L311.523 58H306.707L303.767 49.46H301.919C301.733 50.4307 301.546 51.448 301.359 52.512C301.191 53.576 301.005 54.6773 300.799 55.816C300.669 56.544 300.967 57.0387 301.695 57.3L302.031 57.412L301.919 58H295.311ZM302.087 48.648H303.571C305.102 48.6293 306.241 48.1907 306.987 47.332C307.753 46.4733 308.135 45.316 308.135 43.86C308.135 41.4893 307.071 40.304 304.943 40.304H303.655L302.087 48.648Z" fill="#D30102"/>
<path d="M5 41H203.5" stroke="#D30102" stroke-width="2"/>
<path d="M3.60638 49H200.5" stroke="#D30102" stroke-width="2"/>
<path d="M2.1874 57L202.5 57" stroke="#D30102" stroke-width="2"/>
<path d="M2.45 80L4.664 67.4H9.218C10.106 67.4 10.838 67.556 11.414 67.868C11.99 68.168 12.416 68.57 12.692 69.074C12.98 69.578 13.124 70.124 13.124 70.712C13.124 71.72 12.836 72.572 12.26 73.268C11.696 73.964 10.934 74.456 9.974 74.744L11.648 80H9.128L7.67 75.032H5.636L4.754 80H2.45ZM5.924 73.34H8.102C8.906 73.34 9.548 73.13 10.028 72.71C10.508 72.29 10.748 71.708 10.748 70.964C10.748 70.484 10.592 70.094 10.28 69.794C9.98 69.482 9.488 69.326 8.804 69.326H6.626L5.924 73.34ZM13.6644 80L15.8964 67.4H23.6904L23.3484 69.218H17.8764L17.2644 72.728H22.1964L21.8904 74.492H16.9584L16.2924 78.182H21.7824L21.4584 80H13.6644ZM23.7547 80L25.9687 67.4H28.2727L26.3647 78.2H31.9447L31.6387 80H23.7547ZM33.6683 80L35.9003 67.4H38.2043L35.9723 80H33.6683ZM37.6044 80L44.4264 67.4H47.0364L49.4124 80H46.9824L46.4784 77.084H41.5644L40.0344 80H37.6044ZM42.4824 75.32H46.1904L45.2724 69.992L42.4824 75.32ZM51.0355 80L53.2675 67.4H58.3435C59.4955 67.4 60.3655 67.652 60.9535 68.156C61.5415 68.648 61.8355 69.308 61.8355 70.136C61.8355 70.964 61.5775 71.684 61.0615 72.296C60.5575 72.896 59.9035 73.298 59.0995 73.502C59.6995 73.634 60.1795 73.928 60.5395 74.384C60.8995 74.84 61.0795 75.38 61.0795 76.004C61.0795 76.808 60.8635 77.51 60.4315 78.11C59.9995 78.71 59.4175 79.178 58.6855 79.514C57.9655 79.838 57.1615 80 56.2735 80H51.0355ZM54.6355 72.71H57.0295C57.7615 72.71 58.3375 72.524 58.7575 72.152C59.1895 71.768 59.4055 71.252 59.4055 70.604C59.4055 70.172 59.2555 69.83 58.9555 69.578C58.6675 69.326 58.2235 69.206 57.6235 69.218H55.2475L54.6355 72.71ZM53.6635 78.164H56.2555C57.0235 78.164 57.6355 77.954 58.0915 77.534C58.5475 77.114 58.7755 76.568 58.7755 75.896C58.7755 75.44 58.6075 75.08 58.2715 74.816C57.9355 74.552 57.4675 74.42 56.8675 74.42H54.3295L53.6635 78.164ZM62.532 80L64.746 67.4H67.05L65.142 78.2H70.722L70.416 80H62.532ZM72.4457 80L74.6777 67.4H82.4717L82.1297 69.218H76.6577L76.0457 72.728H80.9777L80.6717 74.492H75.7397L75.0737 78.182H80.5637L80.2397 80H72.4457ZM110.149 80.216C109.321 80.216 108.589 80.09 107.953 79.838C107.317 79.574 106.819 79.196 106.459 78.704C106.099 78.2 105.919 77.6 105.919 76.904C105.919 76.784 105.925 76.67 105.937 76.562C105.949 76.442 105.961 76.322 105.973 76.202H108.421C108.409 76.334 108.403 76.454 108.403 76.562C108.403 77.078 108.583 77.498 108.943 77.822C109.315 78.134 109.813 78.29 110.437 78.29C111.133 78.29 111.679 78.116 112.075 77.768C112.471 77.408 112.669 76.94 112.669 76.364C112.669 75.932 112.519 75.59 112.219 75.338C111.919 75.086 111.535 74.876 111.067 74.708C110.611 74.54 110.131 74.366 109.627 74.186C108.835 73.898 108.229 73.502 107.809 72.998C107.389 72.494 107.179 71.9 107.179 71.216C107.179 70.412 107.383 69.71 107.791 69.11C108.211 68.498 108.781 68.024 109.501 67.688C110.233 67.352 111.073 67.184 112.021 67.184C113.161 67.184 114.079 67.46 114.775 68.012C115.471 68.564 115.819 69.314 115.819 70.262C115.819 70.346 115.813 70.436 115.801 70.532C115.801 70.628 115.795 70.724 115.783 70.82H113.317C113.329 70.712 113.335 70.61 113.335 70.514C113.335 70.142 113.191 69.818 112.903 69.542C112.615 69.266 112.195 69.128 111.643 69.128C111.031 69.128 110.545 69.29 110.185 69.614C109.837 69.926 109.663 70.322 109.663 70.802C109.663 71.174 109.783 71.474 110.023 71.702C110.263 71.918 110.587 72.11 110.995 72.278C111.403 72.434 111.853 72.602 112.345 72.782C112.861 72.962 113.329 73.202 113.749 73.502C114.181 73.79 114.523 74.144 114.775 74.564C115.039 74.984 115.171 75.482 115.171 76.058C115.171 76.898 114.955 77.63 114.523 78.254C114.091 78.878 113.497 79.364 112.741 79.712C111.985 80.048 111.121 80.216 110.149 80.216ZM115.774 80L122.596 67.4H125.206L127.582 80H125.152L124.648 77.084H119.734L118.204 80H115.774ZM120.652 75.32H124.36L123.442 69.992L120.652 75.32ZM129.223 80L131.437 67.4H134.173L136.783 75.392L142.147 67.4H144.883L142.669 80H140.365L141.895 71.306L137.179 78.2H135.361L133.057 71.306L131.527 80H129.223ZM145.114 80L147.346 67.4H155.14L154.798 69.218H149.326L148.714 72.728H153.646L153.34 74.492H148.408L147.742 78.182H153.232L152.908 80H145.114ZM178.407 80L180.621 67.4H184.923C186.819 67.4 188.211 67.862 189.099 68.786C189.987 69.71 190.431 70.958 190.431 72.53C190.431 73.994 190.107 75.29 189.459 76.418C188.823 77.546 187.929 78.428 186.777 79.064C185.625 79.688 184.269 80 182.709 80H178.407ZM181.053 78.02H182.943C184.035 78.02 184.959 77.804 185.715 77.372C186.483 76.94 187.065 76.328 187.461 75.536C187.857 74.744 188.055 73.808 188.055 72.728C188.055 71.6 187.767 70.76 187.191 70.208C186.615 69.644 185.709 69.362 184.473 69.362H182.583L181.053 78.02ZM190.042 80L196.864 67.4H199.474L201.85 80H199.42L198.916 77.084H194.002L192.472 80H190.042ZM194.92 75.32H198.628L197.71 69.992L194.92 75.32ZM204.848 80L205.64 75.518L202.814 67.4H205.442L207.206 73.196L211.004 67.4H213.596L207.944 75.518L207.152 80H204.848ZM240.579 80.216C239.751 80.216 239.019 80.09 238.383 79.838C237.747 79.574 237.249 79.196 236.889 78.704C236.529 78.2 236.349 77.6 236.349 76.904C236.349 76.784 236.355 76.67 236.367 76.562C236.379 76.442 236.391 76.322 236.403 76.202H238.851C238.839 76.334 238.833 76.454 238.833 76.562C238.833 77.078 239.013 77.498 239.373 77.822C239.745 78.134 240.243 78.29 240.867 78.29C241.563 78.29 242.109 78.116 242.505 77.768C242.901 77.408 243.099 76.94 243.099 76.364C243.099 75.932 242.949 75.59 242.649 75.338C242.349 75.086 241.965 74.876 241.497 74.708C241.041 74.54 240.561 74.366 240.057 74.186C239.265 73.898 238.659 73.502 238.239 72.998C237.819 72.494 237.609 71.9 237.609 71.216C237.609 70.412 237.813 69.71 238.221 69.11C238.641 68.498 239.211 68.024 239.931 67.688C240.663 67.352 241.503 67.184 242.451 67.184C243.591 67.184 244.509 67.46 245.205 68.012C245.901 68.564 246.249 69.314 246.249 70.262C246.249 70.346 246.243 70.436 246.231 70.532C246.231 70.628 246.225 70.724 246.213 70.82H243.747C243.759 70.712 243.765 70.61 243.765 70.514C243.765 70.142 243.621 69.818 243.333 69.542C243.045 69.266 242.625 69.128 242.073 69.128C241.461 69.128 240.975 69.29 240.615 69.614C240.267 69.926 240.093 70.322 240.093 70.802C240.093 71.174 240.213 71.474 240.453 71.702C240.693 71.918 241.017 72.11 241.425 72.278C241.833 72.434 242.283 72.602 242.775 72.782C243.291 72.962 243.759 73.202 244.179 73.502C244.611 73.79 244.953 74.144 245.205 74.564C245.469 74.984 245.601 75.482 245.601 76.058C245.601 76.898 245.385 77.63 244.953 78.254C244.521 78.878 243.927 79.364 243.171 79.712C242.415 80.048 241.551 80.216 240.579 80.216ZM247.014 80L249.246 67.4H257.04L256.698 69.218H251.226L250.614 72.728H255.546L255.24 74.492H250.308L249.642 78.182H255.132L254.808 80H247.014ZM257.104 80L259.318 67.4H263.872C264.76 67.4 265.492 67.556 266.068 67.868C266.644 68.168 267.07 68.57 267.346 69.074C267.634 69.578 267.778 70.124 267.778 70.712C267.778 71.72 267.49 72.572 266.914 73.268C266.35 73.964 265.588 74.456 264.628 74.744L266.302 80H263.782L262.324 75.032H260.29L259.408 80H257.104ZM260.578 73.34H262.756C263.56 73.34 264.202 73.13 264.682 72.71C265.162 72.29 265.402 71.708 265.402 70.964C265.402 70.484 265.246 70.094 264.934 69.794C264.634 69.482 264.142 69.326 263.458 69.326H261.28L260.578 73.34ZM271.481 80L269.105 67.4H271.571L273.317 77.624L278.681 67.4H281.147L274.307 80H271.481ZM280.412 80L282.644 67.4H284.948L282.716 80H280.412ZM290.865 80.216C289.785 80.216 288.861 80.006 288.093 79.586C287.337 79.154 286.755 78.56 286.347 77.804C285.951 77.048 285.753 76.166 285.753 75.158C285.753 74.03 285.939 72.98 286.311 72.008C286.683 71.036 287.199 70.19 287.859 69.47C288.531 68.75 289.311 68.192 290.199 67.796C291.099 67.388 292.077 67.184 293.133 67.184C294.645 67.184 295.821 67.562 296.661 68.318C297.501 69.062 297.927 70.112 297.939 71.468H295.383C295.359 70.772 295.125 70.232 294.681 69.848C294.237 69.464 293.601 69.272 292.773 69.272C291.885 69.272 291.093 69.518 290.397 70.01C289.701 70.502 289.149 71.174 288.741 72.026C288.333 72.878 288.129 73.838 288.129 74.906C288.129 75.926 288.399 76.724 288.939 77.3C289.491 77.864 290.259 78.146 291.243 78.146C292.071 78.146 292.761 77.966 293.313 77.606C293.877 77.246 294.297 76.736 294.573 76.076H297.129C296.649 77.384 295.857 78.404 294.753 79.136C293.661 79.856 292.365 80.216 290.865 80.216ZM298.465 80L300.697 67.4H308.491L308.149 69.218H302.677L302.065 72.728H306.997L306.691 74.492H301.759L301.093 78.182H306.583L306.259 80H298.465Z" fill="#020255"/>
<path d="M4.21 86.995C5.69133 86.6797 7.14333 86.522 8.566 86.522C10.7953 86.522 12.46 86.9987 13.56 87.952C14.66 88.9053 15.21 90.3903 15.21 92.407C15.21 94.321 14.6637 95.7767 13.571 96.774C12.4783 97.764 10.8797 98.259 8.775 98.259C8.56233 98.259 8.28 98.2517 7.928 98.237L7.477 98.226V103H4.21V86.995ZM8.83 95.619C9.92267 95.619 10.7293 95.3697 11.25 94.871C11.7707 94.365 12.031 93.5583 12.031 92.451C12.031 91.307 11.7743 90.4747 11.261 89.954C10.7477 89.426 9.94833 89.162 8.863 89.162C8.38633 89.162 7.92433 89.2023 7.477 89.283V95.531C7.85833 95.5897 8.30933 95.619 8.83 95.619ZM17.2321 103.187C16.6088 103.187 16.0991 103 15.7031 102.626C15.3144 102.252 15.1201 101.746 15.1201 101.108C15.1201 100.47 15.3108 99.964 15.6921 99.59C16.0808 99.216 16.5941 99.029 17.2321 99.029C17.8628 99.029 18.3688 99.2197 18.7501 99.601C19.1388 99.9823 19.3331 100.485 19.3331 101.108C19.3331 101.519 19.2414 101.882 19.0581 102.197C18.8821 102.512 18.6364 102.758 18.3211 102.934C18.0058 103.103 17.6428 103.187 17.2321 103.187ZM26.6536 103.209C24.6003 103.209 22.9906 102.534 21.8246 101.185C20.6659 99.8357 20.0866 97.7273 20.0866 94.86C20.0866 91.9927 20.6659 89.8843 21.8246 88.535C22.9906 87.1857 24.6003 86.511 26.6536 86.511C28.7069 86.511 30.3129 87.1857 31.4716 88.535C32.6303 89.8843 33.2096 91.9927 33.2096 94.86C33.2096 97.7273 32.6303 99.8357 31.4716 101.185C30.3129 102.534 28.7069 103.209 26.6536 103.209ZM26.6536 100.492C27.3429 100.492 27.9223 100.316 28.3916 99.964C28.8609 99.6047 29.2203 99.018 29.4696 98.204C29.7263 97.3827 29.8546 96.2937 29.8546 94.937C29.8546 93.529 29.7299 92.407 29.4806 91.571C29.2313 90.7277 28.8719 90.1263 28.4026 89.767C27.9333 89.4077 27.3503 89.228 26.6536 89.228C25.9569 89.228 25.3739 89.4077 24.9046 89.767C24.4353 90.119 24.0759 90.7057 23.8266 91.527C23.5773 92.341 23.4526 93.4263 23.4526 94.783C23.4526 96.191 23.5773 97.3167 23.8266 98.16C24.0759 98.996 24.4353 99.5937 24.9046 99.953C25.3739 100.312 25.9569 100.492 26.6536 100.492ZM36.0524 103.187C35.4291 103.187 34.9194 103 34.5234 102.626C34.1348 102.252 33.9404 101.746 33.9404 101.108C33.9404 100.47 34.1311 99.964 34.5124 99.59C34.9011 99.216 35.4144 99.029 36.0524 99.029C36.6831 99.029 37.1891 99.2197 37.5704 99.601C37.9591 99.9823 38.1534 100.485 38.1534 101.108C38.1534 101.519 38.0618 101.882 37.8784 102.197C37.7024 102.512 37.4568 102.758 37.1414 102.934C36.8261 103.103 36.4631 103.187 36.0524 103.187ZM53.2 94.596C54.146 94.8013 54.883 95.234 55.411 95.894C55.9464 96.5467 56.214 97.412 56.214 98.49C56.214 100.059 55.62 101.236 54.432 102.021C53.2514 102.798 51.385 103.187 48.833 103.187C48.217 103.187 47.5314 103.158 46.776 103.099C46.0207 103.048 45.3314 102.974 44.708 102.879V86.995C45.3974 86.8483 46.1417 86.7347 46.941 86.654C47.7477 86.566 48.536 86.522 49.306 86.522C50.7874 86.522 52.001 86.6797 52.947 86.995C53.9004 87.3103 54.6044 87.798 55.059 88.458C55.521 89.1107 55.752 89.9577 55.752 90.999C55.752 91.8643 55.532 92.6233 55.092 93.276C54.652 93.9287 54.0214 94.3687 53.2 94.596ZM49.801 89.063C49.1264 89.063 48.492 89.1107 47.898 89.206V93.364H49.757C50.4904 93.364 51.0697 93.287 51.495 93.133C51.9204 92.979 52.221 92.7443 52.397 92.429C52.5804 92.1137 52.672 91.7067 52.672 91.208C52.672 90.6947 52.5767 90.284 52.386 89.976C52.1954 89.6607 51.891 89.4297 51.473 89.283C51.0624 89.1363 50.505 89.063 49.801 89.063ZM49.702 100.646C50.5454 100.646 51.2164 100.565 51.715 100.404C52.2137 100.243 52.573 99.9933 52.793 99.656C53.0204 99.3187 53.134 98.875 53.134 98.325C53.134 97.5257 52.8884 96.939 52.397 96.565C51.913 96.191 51.143 96.004 50.087 96.004H47.898V100.569C48.5214 100.62 49.1227 100.646 49.702 100.646ZM64.0149 103.209C61.9616 103.209 60.3519 102.534 59.1859 101.185C58.0273 99.8357 57.4479 97.7273 57.4479 94.86C57.4479 91.9927 58.0273 89.8843 59.1859 88.535C60.3519 87.1857 61.9616 86.511 64.0149 86.511C66.0683 86.511 67.6743 87.1857 68.8329 88.535C69.9916 89.8843 70.5709 91.9927 70.5709 94.86C70.5709 97.7273 69.9916 99.8357 68.8329 101.185C67.6743 102.534 66.0683 103.209 64.0149 103.209ZM64.0149 100.492C64.7043 100.492 65.2836 100.316 65.7529 99.964C66.2223 99.6047 66.5816 99.018 66.8309 98.204C67.0876 97.3827 67.2159 96.2937 67.2159 94.937C67.2159 93.529 67.0913 92.407 66.8419 91.571C66.5926 90.7277 66.2333 90.1263 65.7639 89.767C65.2946 89.4077 64.7116 89.228 64.0149 89.228C63.3183 89.228 62.7353 89.4077 62.2659 89.767C61.7966 90.119 61.4373 90.7057 61.1879 91.527C60.9386 92.341 60.8139 93.4263 60.8139 94.783C60.8139 96.191 60.9386 97.3167 61.1879 98.16C61.4373 98.996 61.7966 99.5937 62.2659 99.953C62.7353 100.312 63.3183 100.492 64.0149 100.492ZM79.2678 94.541L84.3498 103H80.8078L77.3758 97.181L73.9108 103H70.3358L75.4728 94.552L70.7208 86.72H74.2958L77.3758 91.879L80.4448 86.72H83.9648L79.2678 94.541ZM95.902 93.243C96.76 93.243 97.5374 93.419 98.234 93.771C98.9307 94.1157 99.488 94.651 99.906 95.377C100.324 96.103 100.533 97.005 100.533 98.083C100.533 99.161 100.317 100.085 99.884 100.855C99.4514 101.625 98.85 102.212 98.08 102.615C97.3174 103.011 96.441 103.209 95.451 103.209C93.691 103.209 92.3124 102.589 91.315 101.35C90.325 100.111 89.83 98.1013 89.83 95.322C89.83 92.308 90.4497 90.086 91.689 88.656C92.9357 87.226 94.7067 86.511 97.002 86.511C98.1607 86.511 99.081 86.6467 99.763 86.918V89.558C99.3304 89.4113 98.9014 89.3087 98.476 89.25C98.058 89.184 97.5924 89.151 97.079 89.151C95.7664 89.151 94.7764 89.5433 94.109 90.328C93.449 91.1127 93.0934 92.3887 93.042 94.156C93.416 93.8627 93.8487 93.639 94.34 93.485C94.8387 93.3237 95.3594 93.243 95.902 93.243ZM95.484 100.701C96.0927 100.701 96.5914 100.496 96.98 100.085C97.3687 99.667 97.563 99.04 97.563 98.204C97.563 97.3607 97.354 96.7373 96.936 96.334C96.5254 95.9233 95.9717 95.718 95.275 95.718C94.8644 95.718 94.4684 95.784 94.087 95.916C93.7057 96.048 93.361 96.2497 93.053 96.521C93.0897 97.599 93.2107 98.446 93.416 99.062C93.6214 99.6707 93.8927 100.096 94.23 100.338C94.5747 100.58 94.9927 100.701 95.484 100.701ZM110.546 94.486C111.521 94.9993 112.211 95.5823 112.614 96.235C113.017 96.8877 113.219 97.6907 113.219 98.644C113.219 99.546 112.992 100.342 112.537 101.031C112.09 101.72 111.441 102.256 110.59 102.637C109.739 103.018 108.738 103.209 107.587 103.209C106.355 103.209 105.306 103.029 104.441 102.67C103.576 102.311 102.923 101.808 102.483 101.163C102.05 100.51 101.834 99.7513 101.834 98.886C101.834 98.0427 102.061 97.28 102.516 96.598C102.978 95.916 103.642 95.366 104.507 94.948C103.7 94.4493 103.117 93.8773 102.758 93.232C102.399 92.5793 102.219 91.8203 102.219 90.955C102.219 90.0603 102.432 89.2793 102.857 88.612C103.29 87.9373 103.913 87.4203 104.727 87.061C105.548 86.6943 106.52 86.511 107.642 86.511C108.691 86.511 109.604 86.6797 110.381 87.017C111.158 87.3543 111.756 87.8383 112.174 88.469C112.599 89.0923 112.812 89.8257 112.812 90.669C112.812 91.439 112.629 92.1503 112.262 92.803C111.895 93.4483 111.323 94.0093 110.546 94.486ZM107.675 88.876C106.927 88.876 106.348 89.0557 105.937 89.415C105.526 89.7743 105.321 90.2547 105.321 90.856C105.321 91.2887 105.405 91.6517 105.574 91.945C105.743 92.231 106.043 92.5023 106.476 92.759C106.916 93.0157 107.558 93.2907 108.401 93.584C108.966 93.2247 109.376 92.8323 109.633 92.407C109.89 91.9743 110.018 91.472 110.018 90.9C110.018 90.2473 109.813 89.7487 109.402 89.404C108.991 89.052 108.416 88.876 107.675 88.876ZM107.587 100.844C108.43 100.844 109.068 100.664 109.501 100.305C109.941 99.9457 110.161 99.4433 110.161 98.798C110.161 98.3433 110.069 97.9657 109.886 97.665C109.703 97.357 109.384 97.0783 108.929 96.829C108.474 96.5797 107.825 96.3157 106.982 96.037L106.597 95.905C106.047 96.1983 105.622 96.587 105.321 97.071C105.028 97.5477 104.881 98.0647 104.881 98.622C104.881 99.3333 105.108 99.8833 105.563 100.272C106.018 100.653 106.692 100.844 107.587 100.844ZM121.017 93.243C121.875 93.243 122.653 93.419 123.349 93.771C124.046 94.1157 124.603 94.651 125.021 95.377C125.439 96.103 125.648 97.005 125.648 98.083C125.648 99.161 125.432 100.085 124.999 100.855C124.567 101.625 123.965 102.212 123.195 102.615C122.433 103.011 121.556 103.209 120.566 103.209C118.806 103.209 117.428 102.589 116.43 101.35C115.44 100.111 114.945 98.1013 114.945 95.322C114.945 92.308 115.565 90.086 116.804 88.656C118.051 87.226 119.822 86.511 122.117 86.511C123.276 86.511 124.196 86.6467 124.878 86.918V89.558C124.446 89.4113 124.017 89.3087 123.591 89.25C123.173 89.184 122.708 89.151 122.194 89.151C120.882 89.151 119.892 89.5433 119.224 90.328C118.564 91.1127 118.209 92.3887 118.157 94.156C118.531 93.8627 118.964 93.639 119.455 93.485C119.954 93.3237 120.475 93.243 121.017 93.243ZM120.599 100.701C121.208 100.701 121.707 100.496 122.095 100.085C122.484 99.667 122.678 99.04 122.678 98.204C122.678 97.3607 122.469 96.7373 122.051 96.334C121.641 95.9233 121.087 95.718 120.39 95.718C119.98 95.718 119.584 95.784 119.202 95.916C118.821 96.048 118.476 96.2497 118.168 96.521C118.205 97.599 118.326 98.446 118.531 99.062C118.737 99.6707 119.008 100.096 119.345 100.338C119.69 100.58 120.108 100.701 120.599 100.701ZM161.744 103.209C160.373 103.209 159.244 102.985 158.356 102.538C157.469 102.091 156.805 101.39 156.365 100.437C155.933 99.4837 155.716 98.2443 155.716 96.719V86.72H158.972V97.093C158.972 98.281 159.2 99.139 159.654 99.667C160.109 100.195 160.806 100.459 161.744 100.459C162.683 100.459 163.376 100.195 163.823 99.667C164.278 99.139 164.505 98.281 164.505 97.093V86.72H167.695V96.719C167.695 98.2443 167.479 99.4837 167.046 100.437C166.621 101.39 165.972 102.091 165.099 102.538C164.227 102.985 163.108 103.209 161.744 103.209ZM173.392 103V89.613H168.893V86.72H181.158V89.613H176.659V103H173.392ZM182.423 103V86.72H185.69V103H182.423ZM194.936 103.209C192.553 103.209 190.742 102.553 189.502 101.24C188.263 99.9273 187.643 97.8117 187.643 94.893C187.643 92.0403 188.289 89.932 189.579 88.568C190.87 87.1967 192.725 86.511 195.145 86.511C196.209 86.511 197.21 86.632 198.148 86.874V89.635C197.261 89.4003 196.344 89.283 195.398 89.283C194.416 89.283 193.605 89.459 192.967 89.811C192.337 90.163 191.86 90.7497 191.537 91.571C191.215 92.385 191.053 93.4777 191.053 94.849C191.053 96.2643 191.211 97.379 191.526 98.193C191.842 99.007 192.311 99.5863 192.934 99.931C193.565 100.268 194.379 100.437 195.376 100.437C196.146 100.437 197.07 100.265 198.148 99.92V102.681C197.723 102.842 197.221 102.971 196.641 103.066C196.069 103.161 195.501 103.209 194.936 103.209ZM208.97 103L207.837 98.622H202.799L201.666 103H198.487L202.92 86.72H207.76L212.193 103H208.97ZM203.514 95.85H207.111L205.307 88.876L203.514 95.85ZM215.07 99.029C215.774 99.029 216.309 99.2563 216.676 99.711C217.042 100.166 217.226 100.84 217.226 101.735C217.226 102.593 217.079 103.466 216.786 104.353C216.5 105.24 216.111 106.043 215.62 106.762H213.75C214.058 106.051 214.296 105.409 214.465 104.837C214.641 104.265 214.754 103.708 214.806 103.165C214.27 103.099 213.838 102.883 213.508 102.516C213.178 102.149 213.013 101.68 213.013 101.108C213.013 100.455 213.2 99.9457 213.574 99.579C213.948 99.2123 214.446 99.029 215.07 99.029ZM233.053 86.72H236.111V103H232.833L226.838 92.187V103H223.78V86.72H227.058L233.053 97.533V86.72ZM250.266 86.72L245.151 96.081V103H241.895V96.103L236.703 86.72H240.135L243.622 93.111L247.098 86.72H250.266ZM258.545 86.665H260.536V103H257.269V90.537L254.585 92.308V89.261L258.545 86.665ZM268.575 94.574C269.624 94.8087 270.416 95.267 270.951 95.949C271.487 96.631 271.754 97.4963 271.754 98.545C271.754 99.535 271.516 100.382 271.039 101.086C270.563 101.783 269.873 102.311 268.971 102.67C268.069 103.029 266.988 103.209 265.726 103.209C264.487 103.209 263.306 103.044 262.184 102.714V100.14C262.712 100.294 263.288 100.415 263.911 100.503C264.535 100.584 265.114 100.624 265.649 100.624C266.654 100.624 267.402 100.437 267.893 100.063C268.385 99.689 268.63 99.1133 268.63 98.336C268.63 97.566 268.374 96.9867 267.86 96.598C267.347 96.202 266.533 96.004 265.418 96.004H263.658V93.353H265.11C266.144 93.353 266.911 93.1587 267.409 92.77C267.908 92.3813 268.157 91.8277 268.157 91.109C268.157 90.427 267.941 89.921 267.508 89.591C267.083 89.261 266.412 89.096 265.495 89.096C264.96 89.096 264.421 89.1437 263.878 89.239C263.336 89.3343 262.833 89.47 262.371 89.646V87.072C262.826 86.9033 263.376 86.7677 264.021 86.665C264.674 86.5623 265.308 86.511 265.924 86.511C267.677 86.511 269.008 86.874 269.917 87.6C270.827 88.326 271.281 89.3783 271.281 90.757C271.281 91.7103 271.043 92.5243 270.566 93.199C270.097 93.8663 269.433 94.3247 268.575 94.574ZM276.499 93.199C278.531 93.3603 280.019 93.8407 280.965 94.64C281.919 95.4393 282.395 96.6163 282.395 98.171C282.395 99.8283 281.878 101.082 280.844 101.933C279.81 102.784 278.336 103.209 276.422 103.209C275.168 103.209 273.984 103.033 272.869 102.681V100.107C273.405 100.268 273.984 100.397 274.607 100.492C275.231 100.58 275.81 100.624 276.345 100.624C277.343 100.624 278.08 100.433 278.556 100.052C279.033 99.6707 279.271 99.0877 279.271 98.303C279.271 97.753 279.139 97.3057 278.875 96.961C278.611 96.6163 278.153 96.345 277.5 96.147C276.848 95.9417 275.935 95.8023 274.761 95.729L273.309 95.641L273.815 86.72H281.79V89.426H276.73L276.499 93.199ZM289.183 103.209C287.349 103.209 285.963 102.542 285.025 101.207C284.086 99.8723 283.617 97.7567 283.617 94.86C283.617 91.956 284.086 89.8403 285.025 88.513C285.963 87.1783 287.349 86.511 289.183 86.511C291.016 86.511 292.402 87.1783 293.341 88.513C294.279 89.8403 294.749 91.956 294.749 94.86C294.749 97.7567 294.279 99.8723 293.341 101.207C292.402 102.542 291.016 103.209 289.183 103.209ZM289.183 100.492C289.711 100.492 290.143 100.32 290.481 99.975C290.825 99.623 291.082 99.04 291.251 98.226C291.427 97.4047 291.515 96.2863 291.515 94.871C291.515 93.4557 291.427 92.3373 291.251 91.516C291.082 90.6873 290.825 90.1007 290.481 89.756C290.143 89.404 289.711 89.228 289.183 89.228C288.655 89.228 288.218 89.404 287.874 89.756C287.536 90.1007 287.28 90.6837 287.104 91.505C286.928 92.3263 286.84 93.441 286.84 94.849C286.84 96.2643 286.928 97.3863 287.104 98.215C287.28 99.0363 287.536 99.623 287.874 99.975C288.218 100.32 288.655 100.492 289.183 100.492ZM302.091 94.574C303.14 94.8087 303.932 95.267 304.467 95.949C305.002 96.631 305.27 97.4963 305.27 98.545C305.27 99.535 305.032 100.382 304.555 101.086C304.078 101.783 303.389 102.311 302.487 102.67C301.585 103.029 300.503 103.209 299.242 103.209C298.003 103.209 296.822 103.044 295.7 102.714V100.14C296.228 100.294 296.804 100.415 297.427 100.503C298.05 100.584 298.63 100.624 299.165 100.624C300.17 100.624 300.918 100.437 301.409 100.063C301.9 99.689 302.146 99.1133 302.146 98.336C302.146 97.566 301.889 96.9867 301.376 96.598C300.863 96.202 300.049 96.004 298.934 96.004H297.174V93.353H298.626C299.66 93.353 300.426 93.1587 300.925 92.77C301.424 92.3813 301.673 91.8277 301.673 91.109C301.673 90.427 301.457 89.921 301.024 89.591C300.599 89.261 299.928 89.096 299.011 89.096C298.476 89.096 297.937 89.1437 297.394 89.239C296.851 89.3343 296.349 89.47 295.887 89.646V87.072C296.342 86.9033 296.892 86.7677 297.537 86.665C298.19 86.5623 298.824 86.511 299.44 86.511C301.193 86.511 302.524 86.874 303.433 87.6C304.342 88.326 304.797 89.3783 304.797 90.757C304.797 91.7103 304.559 92.5243 304.082 93.199C303.613 93.8663 302.949 94.3247 302.091 94.574Z" fill="#020255"/>
<circle cx="140.5" cy="94.5" r="3.5" fill="#020255"/>
</g>
<defs>
<clipPath id="clip0_8_13">
<rect width="325" height="105" fill="white"/>
</clipPath>
</defs>
</svg>
