<svg width="325" height="60" viewBox="0 0 325 60" fill="none" xmlns="http://www.w3.org/2000/svg">
<g clip-path="url(#clip0_19_34)">
<path d="M6.2 34L6.4 32.95L7.65 32.5C8.11667 32.3667 8.48333 32.1333 8.75 31.8C9.05 31.4333 9.25 31.0333 9.35 30.6L12 16.45C12.3333 14.6167 12.6833 12.65 13.05 10.55C13.45 8.41666 13.8 6.38333 14.1 4.45C14.2 3.98333 14.1167 3.55 13.85 3.15C13.6167 2.71666 13.2667 2.43333 12.8 2.3L11.9 2L12.15 0.949999H23.9L23.65 2L22.45 2.4C21.4833 2.66667 20.9167 3.3 20.75 4.3L18.05 18.5C17.7167 20.3333 17.3667 22.3 17 24.4C16.6333 26.5 16.2667 28.5 15.9 30.4C15.8333 30.9 15.9167 31.35 16.15 31.75C16.3833 32.15 16.7167 32.4333 17.15 32.6L18.2 32.95L17.95 34H6.2ZM44.9785 34.25L30.8285 7.45L26.5785 29.95C26.3118 31.3167 26.8452 32.2333 28.1785 32.7L29.0785 32.95L28.8785 34H21.2785L21.4785 32.95L22.5285 32.6C23.8618 32.2 24.6452 31.3333 24.8785 30L29.6785 4.75L29.2285 3.9C28.9952 3.43333 28.7285 3.08333 28.4285 2.85C28.1285 2.58333 27.7452 2.33333 27.2785 2.1L26.9285 2L27.1285 0.949999H34.6785L47.6285 25.25L51.4785 4.8C51.7119 3.5 51.2119 2.65 49.9785 2.25L49.2285 2L49.4285 0.949999H56.6785L56.4785 2L55.4785 2.3C54.1785 2.7 53.4119 3.55 53.1785 4.85L47.6785 34.25H44.9785ZM53.075 34L53.275 32.95L53.975 32.7C55.3083 32.2 56.0917 31.3 56.325 30L58.875 16.45C59.2083 14.6833 59.5417 12.8 59.875 10.8C60.2417 8.76667 60.5917 6.81666 60.925 4.95C61.125 3.61666 60.6083 2.71666 59.375 2.25L58.775 2L59.025 0.949999H70.475C73.8083 0.949999 76.6083 1.55 78.875 2.75C81.175 3.91667 82.9083 5.55 84.075 7.65C85.2417 9.75 85.825 12.15 85.825 14.85C85.825 17.8833 85.2917 20.5833 84.225 22.95C83.1583 25.3167 81.6917 27.3333 79.825 29C77.9917 30.6333 75.8583 31.8833 73.425 32.75C71.025 33.5833 68.475 34 65.775 34H53.075ZM62.425 32.55H65.375C68.2417 32.55 70.675 31.75 72.675 30.15C74.7083 28.5167 76.2583 26.3333 77.325 23.6C78.3917 20.8667 78.925 17.8167 78.925 14.45C78.925 10.4833 78.125 7.51666 76.525 5.55C74.925 3.58333 72.6083 2.53333 69.575 2.4H67.975L64.925 18.5C64.4917 20.8333 64.0583 23.1667 63.625 25.5C63.1917 27.8333 62.7917 30.1833 62.425 32.55ZM85.2527 34L85.4527 32.95L86.3027 32.7C87.4694 32.3667 88.1861 31.5667 88.4527 30.3L91.0527 16.45C91.3861 14.6833 91.7194 12.7833 92.0527 10.75C92.4194 8.71667 92.7694 6.76667 93.1027 4.9C93.3361 3.53333 92.7861 2.61667 91.4527 2.15L90.9527 2L91.2027 0.949999H113.603L112.353 9.65H111.053L110.153 5.55C109.919 4.48333 109.503 3.7 108.903 3.2C108.336 2.7 107.469 2.45 106.303 2.45H100.153L97.5527 16.3H101.803C103.236 16.3 104.369 15.6833 105.203 14.45L106.753 12.15H107.803L106.003 21.8H104.953L104.403 19.95C103.969 18.4833 103.003 17.75 101.503 17.75H97.2527C96.8194 20.0833 96.3694 22.5167 95.9027 25.05C95.4361 27.5833 95.0194 30.0667 94.6527 32.5H102.403C103.436 32.5 104.319 32.3 105.053 31.9C105.786 31.5 106.469 30.8167 107.103 29.85L110.103 25.3H111.403L109.403 34H85.2527ZM112.841 34L113.041 32.95L113.591 32.8C114.957 32.4 115.791 31.4833 116.091 30.05L118.641 16.45C119.007 14.65 119.357 12.8167 119.691 10.95C120.024 9.05 120.374 7.03333 120.741 4.9C120.941 3.46667 120.374 2.55 119.041 2.15L118.541 2L118.791 0.949999H129.541C133.774 0.949999 136.857 1.78333 138.791 3.45C140.724 5.08333 141.691 7.23333 141.691 9.9C141.691 11.9 141.124 13.75 139.991 15.45C138.891 17.15 137.224 18.5167 134.991 19.55C132.757 20.5833 129.957 21.1 126.591 21.1H124.241C124.007 22.4333 123.757 23.85 123.491 25.35C123.224 26.85 122.957 28.3833 122.691 29.95C122.391 31.4167 122.974 32.3667 124.441 32.8L125.091 32.95L124.891 34H112.841ZM124.541 19.6H126.491C129.124 19.6 131.207 18.7333 132.741 17C134.307 15.2333 135.091 12.8333 135.091 9.8C135.091 7.4 134.574 5.56666 133.541 4.3C132.507 3.03333 131.024 2.4 129.091 2.4H127.741C127.207 5.26667 126.674 8.13333 126.141 11C125.607 13.8667 125.074 16.7333 124.541 19.6ZM139.94 34L140.14 32.95L140.99 32.7C142.157 32.3667 142.874 31.5667 143.14 30.3L145.74 16.45C146.074 14.6833 146.407 12.7833 146.74 10.75C147.107 8.71667 147.457 6.76667 147.79 4.9C148.024 3.53333 147.474 2.61667 146.14 2.15L145.64 2L145.89 0.949999H168.29L167.04 9.65H165.74L164.84 5.55C164.607 4.48333 164.19 3.7 163.59 3.2C163.024 2.7 162.157 2.45 160.99 2.45H154.84L152.24 16.3H156.49C157.924 16.3 159.057 15.6833 159.89 14.45L161.44 12.15H162.49L160.69 21.8H159.64L159.09 19.95C158.657 18.4833 157.69 17.75 156.19 17.75H151.94C151.507 20.0833 151.057 22.5167 150.59 25.05C150.124 27.5833 149.707 30.0667 149.34 32.5H157.09C158.124 32.5 159.007 32.3 159.74 31.9C160.474 31.5 161.157 30.8167 161.79 29.85L164.79 25.3H166.09L164.09 34H139.94ZM190.926 34.25L176.776 7.45L172.526 29.95C172.259 31.3167 172.792 32.2333 174.126 32.7L175.026 32.95L174.826 34H167.226L167.426 32.95L168.476 32.6C169.809 32.2 170.592 31.3333 170.826 30L175.626 4.75L175.176 3.9C174.942 3.43333 174.676 3.08333 174.376 2.85C174.076 2.58333 173.692 2.33333 173.226 2.1L172.876 2L173.076 0.949999H180.626L193.576 25.25L197.426 4.8C197.659 3.5 197.159 2.65 195.926 2.25L195.176 2L195.376 0.949999H202.626L202.426 2L201.426 2.3C200.126 2.7 199.359 3.55 199.126 4.85L193.626 34.25H190.926ZM199.022 34L199.222 32.95L199.922 32.7C201.256 32.2 202.039 31.3 202.272 30L204.822 16.45C205.156 14.6833 205.489 12.8 205.822 10.8C206.189 8.76667 206.539 6.81666 206.872 4.95C207.072 3.61666 206.556 2.71666 205.322 2.25L204.722 2L204.972 0.949999H216.422C219.756 0.949999 222.556 1.55 224.822 2.75C227.122 3.91667 228.856 5.55 230.022 7.65C231.189 9.75 231.772 12.15 231.772 14.85C231.772 17.8833 231.239 20.5833 230.172 22.95C229.106 25.3167 227.639 27.3333 225.772 29C223.939 30.6333 221.806 31.8833 219.372 32.75C216.972 33.5833 214.422 34 211.722 34H199.022ZM208.372 32.55H211.322C214.189 32.55 216.622 31.75 218.622 30.15C220.656 28.5167 222.206 26.3333 223.272 23.6C224.339 20.8667 224.872 17.8167 224.872 14.45C224.872 10.4833 224.072 7.51666 222.472 5.55C220.872 3.58333 218.556 2.53333 215.522 2.4H213.922L210.872 18.5C210.439 20.8333 210.006 23.1667 209.572 25.5C209.139 27.8333 208.739 30.1833 208.372 32.55ZM231.2 34L231.4 32.95L232.25 32.7C233.417 32.3667 234.133 31.5667 234.4 30.3L237 16.45C237.333 14.6833 237.667 12.7833 238 10.75C238.367 8.71667 238.717 6.76667 239.05 4.9C239.283 3.53333 238.733 2.61667 237.4 2.15L236.9 2L237.15 0.949999H259.55L258.3 9.65H257L256.1 5.55C255.867 4.48333 255.45 3.7 254.85 3.2C254.283 2.7 253.417 2.45 252.25 2.45H246.1L243.5 16.3H247.75C249.183 16.3 250.317 15.6833 251.15 14.45L252.7 12.15H253.75L251.95 21.8H250.9L250.35 19.95C249.917 18.4833 248.95 17.75 247.45 17.75H243.2C242.767 20.0833 242.317 22.5167 241.85 25.05C241.383 27.5833 240.967 30.0667 240.6 32.5H248.35C249.383 32.5 250.267 32.3 251 31.9C251.733 31.5 252.417 30.8167 253.05 29.85L256.05 25.3H257.35L255.35 34H231.2ZM282.186 34.25L268.036 7.45L263.786 29.95C263.519 31.3167 264.052 32.2333 265.386 32.7L266.286 32.95L266.086 34H258.486L258.686 32.95L259.736 32.6C261.069 32.2 261.852 31.3333 262.086 30L266.886 4.75L266.436 3.9C266.202 3.43333 265.936 3.08333 265.636 2.85C265.336 2.58333 264.952 2.33333 264.486 2.1L264.136 2L264.336 0.949999H271.886L284.836 25.25L288.686 4.8C288.919 3.5 288.419 2.65 287.186 2.25L286.436 2L286.636 0.949999H293.886L293.686 2L292.686 2.3C291.386 2.7 290.619 3.55 290.386 4.85L284.886 34.25H282.186ZM297.026 34L297.226 32.95L298.426 32.6C299.926 32.1 300.826 31.0667 301.126 29.5L303.576 16.45C303.976 14.3167 304.393 11.9833 304.826 9.45C305.293 6.91667 305.693 4.58333 306.026 2.45H303.826C301.66 2.45 299.976 3.33333 298.776 5.1L295.276 10.1H293.976L295.876 0.949999H323.326L321.726 10.1H320.476L318.976 5.55C318.343 3.48333 316.926 2.45 314.726 2.45H312.676L309.626 18.5C309.293 20.2 308.96 22 308.626 23.9C308.293 25.8 307.96 27.65 307.626 29.45C307.393 31.0833 308.043 32.1833 309.576 32.75L310.326 32.95L310.126 34H297.026Z" fill="white"/>
<path d="M210.8 58.476C209.101 58.476 207.617 58.1587 206.348 57.524C205.097 56.8707 204.127 55.9373 203.436 54.724C202.745 53.492 202.4 52.008 202.4 50.272C202.4 48.7227 202.661 47.2667 203.184 45.904C203.725 44.5413 204.481 43.3467 205.452 42.32C206.441 41.2747 207.599 40.4627 208.924 39.884C210.249 39.2867 211.705 38.988 213.292 38.988C214.225 38.988 215.112 39.0907 215.952 39.296C216.792 39.5013 217.651 39.8467 218.528 40.332L217.856 44.616H217.1L216.4 41.9C216.213 41.116 215.877 40.5747 215.392 40.276C214.925 39.9773 214.281 39.828 213.46 39.828C212.023 39.828 210.753 40.276 209.652 41.172C208.569 42.0493 207.72 43.2813 207.104 44.868C206.507 46.436 206.208 48.256 206.208 50.328C206.208 52.5867 206.665 54.3787 207.58 55.704C208.513 57.0107 209.829 57.664 211.528 57.664C212.237 57.664 212.797 57.5333 213.208 57.272C213.637 56.992 214.011 56.5813 214.328 56.04L216.12 52.904H216.876L216.204 57.16C215.457 57.5333 214.673 57.8413 213.852 58.084C213.031 58.3453 212.013 58.476 210.8 58.476ZM226.025 58.476C224.681 58.476 223.486 58.1867 222.441 57.608C221.414 57.0107 220.602 56.1427 220.005 55.004C219.408 53.8653 219.109 52.456 219.109 50.776C219.109 49.2267 219.352 47.752 219.837 46.352C220.322 44.9333 221.013 43.6733 221.909 42.572C222.824 41.4707 223.906 40.6027 225.157 39.968C226.426 39.3333 227.836 39.016 229.385 39.016C230.785 39.016 231.998 39.3333 233.025 39.968C234.07 40.584 234.882 41.4707 235.461 42.628C236.04 43.7667 236.329 45.12 236.329 46.688C236.329 48.2747 236.086 49.7773 235.601 51.196C235.116 52.6147 234.416 53.8747 233.501 54.976C232.605 56.0587 231.522 56.9173 230.253 57.552C229.002 58.168 227.593 58.476 226.025 58.476ZM226.305 57.636C227.164 57.636 227.966 57.3373 228.713 56.74C229.478 56.124 230.15 55.284 230.729 54.22C231.308 53.156 231.756 51.9333 232.073 50.552C232.409 49.152 232.577 47.6587 232.577 46.072C232.577 44.0747 232.316 42.544 231.793 41.48C231.27 40.3973 230.402 39.856 229.189 39.856C228.33 39.856 227.518 40.1547 226.753 40.752C225.988 41.3493 225.306 42.1707 224.709 43.216C224.13 44.2613 223.673 45.484 223.337 46.884C223.001 48.2653 222.833 49.7493 222.833 51.336C222.833 53.352 223.113 54.9107 223.673 56.012C224.233 57.0947 225.11 57.636 226.305 57.636ZM244.649 58.476C242.782 58.476 241.27 58.0187 240.113 57.104C238.974 56.1707 238.405 54.78 238.405 52.932C238.405 52.5213 238.433 52.092 238.489 51.644C238.545 51.196 238.61 50.7387 238.685 50.272L239.105 47.976C239.273 47.0427 239.45 46.044 239.637 44.98C239.842 43.8973 240.038 42.852 240.225 41.844C240.355 40.9667 240.001 40.3973 239.161 40.136L238.937 40.08L239.049 39.492H245.965L245.853 40.08L245.545 40.164C244.723 40.4067 244.229 40.948 244.061 41.788L242.493 50.104C242.418 50.5333 242.353 50.972 242.297 51.42C242.241 51.8493 242.213 52.2973 242.213 52.764C242.213 53.9773 242.53 54.9293 243.165 55.62C243.818 56.292 244.714 56.628 245.853 56.628C247.327 56.628 248.485 56.152 249.325 55.2C250.183 54.248 250.781 52.8853 251.117 51.112L252.881 41.816C253.049 40.9573 252.713 40.3973 251.873 40.136L251.677 40.08L251.789 39.492H255.737L255.625 40.08L255.373 40.164C254.551 40.388 254.057 40.9293 253.889 41.788L252.125 51.392C251.714 53.6507 250.874 55.396 249.605 56.628C248.354 57.86 246.702 58.476 244.649 58.476ZM253.803 58L253.915 57.412L254.307 57.272C255.054 57.048 255.493 56.5533 255.623 55.788L257.051 48.172C257.238 47.1267 257.425 46.0533 257.611 44.952C257.817 43.8507 258.013 42.768 258.199 41.704C258.33 40.9387 258.031 40.4253 257.303 40.164L256.995 40.08L257.135 39.492H264.107C266.179 39.492 267.719 39.884 268.727 40.668C269.735 41.4333 270.239 42.4787 270.239 43.804C270.239 44.9613 269.838 45.9973 269.035 46.912C268.233 47.808 267.085 48.452 265.591 48.844L268.447 55.872C268.709 56.5627 269.185 57.048 269.875 57.328L270.155 57.412L270.015 58H265.199L262.259 49.46H260.411C260.225 50.4307 260.038 51.448 259.851 52.512C259.683 53.576 259.497 54.6773 259.291 55.816C259.161 56.544 259.459 57.0387 260.187 57.3L260.523 57.412L260.411 58H253.803ZM260.579 48.648H262.063C263.594 48.6293 264.733 48.1907 265.479 47.332C266.245 46.4733 266.627 45.316 266.627 43.86C266.627 41.4893 265.563 40.304 263.435 40.304H262.147L260.579 48.648ZM271.194 58L271.306 57.412L272.006 57.16C272.267 57.0853 272.473 56.9547 272.622 56.768C272.79 56.5627 272.902 56.3387 272.958 56.096L274.442 48.172C274.629 47.1453 274.825 46.044 275.03 44.868C275.254 43.6733 275.45 42.5347 275.618 41.452C275.674 41.1907 275.627 40.948 275.478 40.724C275.347 40.4813 275.151 40.3227 274.89 40.248L274.386 40.08L274.526 39.492H281.106L280.966 40.08L280.294 40.304C279.753 40.4533 279.435 40.808 279.342 41.368L277.83 49.32C277.643 50.3467 277.447 51.448 277.242 52.624C277.037 53.8 276.831 54.92 276.626 55.984C276.589 56.264 276.635 56.516 276.766 56.74C276.897 56.964 277.083 57.1227 277.326 57.216L277.914 57.412L277.774 58H271.194ZM279.862 58L279.974 57.412L280.45 57.272C281.103 57.0853 281.505 56.6373 281.654 55.928L283.11 48.172C283.297 47.1827 283.483 46.1187 283.67 44.98C283.875 43.8413 284.071 42.7493 284.258 41.704C284.389 40.9387 284.081 40.4253 283.334 40.164L283.054 40.08L283.194 39.492H295.738L295.038 44.364H294.31L293.806 42.068C293.675 41.4707 293.442 41.032 293.106 40.752C292.789 40.472 292.303 40.332 291.65 40.332H288.206L286.75 48.088H289.13C289.933 48.088 290.567 47.7427 291.034 47.052L291.902 45.764H292.49L291.482 51.168H290.894L290.586 50.132C290.343 49.3107 289.802 48.9 288.962 48.9H286.582C286.339 50.2067 286.087 51.5693 285.826 52.988C285.565 54.4067 285.331 55.7973 285.126 57.16H289.466C290.045 57.16 290.539 57.048 290.95 56.824C291.361 56.6 291.743 56.2173 292.098 55.676L293.778 53.128H294.506L293.386 58H279.862ZM295.311 58L295.423 57.412L295.815 57.272C296.562 57.048 297.001 56.5533 297.131 55.788L298.559 48.172C298.746 47.1267 298.933 46.0533 299.119 44.952C299.325 43.8507 299.521 42.768 299.707 41.704C299.838 40.9387 299.539 40.4253 298.811 40.164L298.503 40.08L298.643 39.492H305.615C307.687 39.492 309.227 39.884 310.235 40.668C311.243 41.4333 311.747 42.4787 311.747 43.804C311.747 44.9613 311.346 45.9973 310.543 46.912C309.741 47.808 308.593 48.452 307.099 48.844L309.955 55.872C310.217 56.5627 310.693 57.048 311.383 57.328L311.663 57.412L311.523 58H306.707L303.767 49.46H301.919C301.733 50.4307 301.546 51.448 301.359 52.512C301.191 53.576 301.005 54.6773 300.799 55.816C300.669 56.544 300.967 57.0387 301.695 57.3L302.031 57.412L301.919 58H295.311ZM302.087 48.648H303.571C305.102 48.6293 306.241 48.1907 306.987 47.332C307.753 46.4733 308.135 45.316 308.135 43.86C308.135 41.4893 307.071 40.304 304.943 40.304H303.655L302.087 48.648Z" fill="white"/>
<path d="M5 41H203.5" stroke="white" stroke-width="2"/>
<path d="M3.60638 49H200.5" stroke="white" stroke-width="2"/>
<path d="M2.1874 57L202.5 57" stroke="white" stroke-width="2"/>
</g>
<defs>
<clipPath id="clip0_19_34">
<rect width="325" height="60" fill="white"/>
</clipPath>
</defs>
</svg>
