<svg width="800" height="800" viewBox="0 0 800 800" fill="none" xmlns="http://www.w3.org/2000/svg">
<path d="M400 33.3333C327.48 33.3333 256.589 54.8379 196.291 95.1277C135.993 135.418 88.9963 192.683 61.2441 259.683C33.492 326.682 26.2308 400.407 40.3787 471.533C54.5266 542.659 89.4482 607.993 140.727 659.272C192.007 710.552 257.34 745.473 328.467 759.621C399.593 773.769 473.318 766.508 540.317 738.756C607.317 711.004 664.582 664.007 704.872 603.709C745.162 543.411 766.667 472.52 766.667 400C766.552 302.789 727.884 209.593 659.146 140.854C590.407 72.1156 497.211 33.4479 400 33.3333ZM400 700C340.666 700 282.664 682.405 233.329 649.441C183.994 616.476 145.542 569.623 122.836 514.805C100.13 459.987 94.1888 399.667 105.764 341.473C117.34 283.279 145.912 229.824 187.868 187.868C229.824 145.912 283.279 117.34 341.473 105.764C399.667 94.1888 459.987 100.13 514.805 122.836C569.623 145.542 616.476 183.994 649.441 233.329C682.405 282.664 700 340.666 700 400C699.912 479.538 668.276 555.793 612.035 612.034C555.793 668.276 479.538 699.912 400 700ZM400 133.333C335.975 133.447 274.125 156.575 225.734 198.498C177.343 240.421 145.637 298.344 136.4 361.7V361.933V363C135.667 368.3 135.033 373.567 134.6 378.933C133.733 386.267 133.333 393.333 133.333 400C133.427 411.902 134.318 423.784 136 435.567C136.4 438.533 136.833 441.467 137.333 444.433C139.154 455.569 141.67 466.579 144.867 477.4C144.867 477.867 145.067 478.333 145.2 478.8C158.124 520.12 180.868 557.693 211.484 588.303C242.101 618.913 279.678 641.65 321 654.567C321.333 654.567 321.667 654.567 322 654.767C332.934 658.037 344.069 660.598 355.333 662.433C358.233 662.933 361.133 663.367 364.067 663.767C375.966 665.54 387.971 666.509 400 666.667C411.924 666.573 423.828 665.682 435.633 664C438.567 663.6 441.467 663.167 444.367 662.667C455.631 660.831 466.765 658.27 477.7 655C478.033 655 478.367 655 478.7 654.8C520.022 641.883 557.599 619.147 588.216 588.536C618.832 557.926 641.576 520.353 654.5 479.033C654.5 478.567 654.667 478.1 654.833 477.633C658.03 466.812 660.546 455.802 662.367 444.667C662.867 441.7 663.3 438.767 663.7 435.8C665.492 423.947 666.484 411.986 666.667 400C666.667 393.333 666.267 386.267 665.6 378.933C665.167 373.567 664.533 368.3 663.8 363V361.933V361.7C654.558 298.31 622.823 240.36 574.391 198.433C525.958 156.506 464.059 133.399 400 133.333ZM400 200C441.32 200.047 481.611 212.891 515.335 236.767C549.059 260.642 574.56 294.376 588.333 333.333H211.667C225.44 294.376 250.941 260.642 284.665 236.767C318.389 212.891 358.68 200.047 400 200ZM230.2 505.167C245.344 510.01 259.111 518.403 270.354 529.646C281.597 540.889 289.99 554.656 294.833 569.8C268.623 553.49 246.51 531.377 230.2 505.167ZM505.167 569.8C510.01 554.656 518.403 540.889 529.646 529.646C540.889 518.403 554.656 510.01 569.8 505.167C553.49 531.377 531.377 553.49 505.167 569.8ZM597.5 430.033C597.5 431.167 597.167 432.267 596.967 433.367C553.817 434.145 512.652 451.63 482.133 482.143C451.614 512.656 434.12 553.817 433.333 596.967L430 597.533C410.172 600.432 390.028 600.432 370.2 597.533L366.867 596.967C366.087 553.778 348.569 512.579 318.006 482.053C287.443 451.528 246.223 434.061 203.033 433.333C202.833 432.2 202.667 431.1 202.5 430C200.918 420.076 200.082 410.048 200 400H600C599.918 410.048 599.082 420.076 597.5 430V430.033Z" fill="white"/>
</svg>
