<svg width="800" height="800" viewBox="0 0 800 800" fill="none" xmlns="http://www.w3.org/2000/svg">
<path d="M466.667 66.6667H333.333C306.812 66.6667 281.376 77.2024 262.623 95.9561C243.869 114.71 233.333 140.145 233.333 166.667V200H166.667C140.145 200 114.71 210.536 95.956 229.289C77.2024 248.043 66.6667 273.478 66.6667 300V633.333C66.6667 659.855 77.2024 685.29 95.956 704.044C114.71 722.798 140.145 733.333 166.667 733.333H633.333C659.855 733.333 685.29 722.798 704.044 704.044C722.798 685.29 733.333 659.855 733.333 633.333V300C733.333 273.478 722.798 248.043 704.044 229.289C685.29 210.536 659.855 200 633.333 200H566.667V166.667C566.667 140.145 556.131 114.71 537.377 95.9561C518.624 77.2024 493.188 66.6667 466.667 66.6667ZM300 166.667C300 157.826 303.512 149.348 309.763 143.097C316.014 136.845 324.493 133.333 333.333 133.333H466.667C475.507 133.333 483.986 136.845 490.237 143.097C496.488 149.348 500 157.826 500 166.667V200H300V166.667ZM666.667 300V633.333C666.667 642.174 663.155 650.652 656.904 656.904C650.652 663.155 642.174 666.667 633.333 666.667H166.667C157.826 666.667 149.348 663.155 143.096 656.904C136.845 650.652 133.333 642.174 133.333 633.333V300C133.333 291.16 136.845 282.681 143.096 276.43C149.348 270.179 157.826 266.667 166.667 266.667H633.333C642.174 266.667 650.652 270.179 656.904 276.43C663.155 282.681 666.667 291.16 666.667 300ZM433.333 433.333H500V500H433.333V566.667H366.667V500H300V433.333H366.667V366.667H433.333V433.333Z" fill="white"/>
</svg>
