<svg width="800" height="800" viewBox="0 0 800 800" fill="none" xmlns="http://www.w3.org/2000/svg">
<path d="M100 399.5C98.1746 486.025 130.721 569.747 190.508 632.32C250.295 694.894 332.448 731.218 418.967 733.333C476.024 732.697 531.855 716.701 580.593 687.027C629.33 657.353 669.173 615.096 695.933 564.7C698.801 559.451 700.203 553.528 699.993 547.551C699.783 541.573 697.969 535.763 694.741 530.728C691.513 525.693 686.99 521.62 681.646 518.935C676.301 516.249 670.333 515.052 664.367 515.467L660.7 515.733C656.333 516.067 651.933 516.4 647.367 516.4C578.528 514.291 513.329 484.993 466.043 434.92C418.757 384.848 393.236 318.08 395.067 249.233C395.061 202.66 406.703 156.825 428.933 115.9C431.797 110.656 433.198 104.74 432.991 98.7687C432.784 92.7978 430.976 86.9923 427.756 81.9597C424.536 76.9272 420.023 72.8525 414.688 70.1621C409.354 67.4717 403.394 66.2644 397.433 66.6667C315.048 74.4801 238.647 113.1 183.504 174.806C128.36 236.513 98.5387 316.758 100 399.5ZM344.767 144.433C333.992 178.323 328.505 213.672 328.5 249.233C327.186 328.314 354.346 405.232 405.025 465.953C455.705 526.674 526.526 567.152 604.567 580C581.644 606.898 553.21 628.557 521.188 643.51C489.167 658.462 454.306 666.36 418.967 666.667C350.128 664.557 284.929 635.26 237.643 585.187C190.357 535.115 164.836 468.347 166.667 399.5C165.888 343.686 182.661 289.037 214.618 243.269C246.575 197.502 292.1 162.93 344.767 144.433Z" fill="white"/>
</svg>
