<svg width="800" height="800" viewBox="0 0 800 800" fill="none" xmlns="http://www.w3.org/2000/svg">
<path d="M660 180C656.895 175.86 652.869 172.5 648.241 170.186C643.612 167.872 638.508 166.667 633.333 166.667H500V133.333C500 115.652 492.976 98.6953 480.474 86.1929C467.971 73.6905 451.015 66.6667 433.333 66.6667H100C82.3191 66.6667 65.3621 73.6905 52.8597 86.1929C40.3573 98.6953 33.3335 115.652 33.3335 133.333V566.667C33.3335 575.507 36.8454 583.986 43.0966 590.237C49.3478 596.488 57.8263 600 66.6668 600H100C100 635.362 114.048 669.276 139.053 694.281C164.057 719.286 197.971 733.333 233.333 733.333C268.696 733.333 302.61 719.286 327.614 694.281C352.619 669.276 366.667 635.362 366.667 600H433.333C433.333 635.362 447.381 669.276 472.386 694.281C497.391 719.286 531.305 733.333 566.667 733.333C602.029 733.333 635.943 719.286 660.948 694.281C685.953 669.276 700 635.362 700 600C717.681 600 734.638 592.976 747.141 580.474C759.643 567.971 766.667 551.014 766.667 533.333V333.333C766.667 326.121 764.328 319.103 760 313.333L660 180ZM233.333 666.667C220.148 666.667 207.259 662.757 196.295 655.431C185.332 648.106 176.787 637.694 171.742 625.512C166.696 613.331 165.375 599.926 167.948 586.994C170.52 574.062 176.87 562.183 186.193 552.86C195.517 543.536 207.395 537.187 220.327 534.614C233.26 532.042 246.664 533.362 258.846 538.408C271.027 543.454 281.439 551.999 288.765 562.962C296.09 573.925 300 586.815 300 600C300 617.681 292.976 634.638 280.474 647.14C267.972 659.643 251.015 666.667 233.333 666.667ZM433.333 533.333H348.133C336.58 513.081 319.875 496.246 299.713 484.535C279.551 472.825 256.65 466.657 233.333 466.657C210.017 466.657 187.116 472.825 166.954 484.535C146.792 496.246 130.087 513.081 118.533 533.333H100V333.333H433.333V533.333ZM433.333 200V266.667H100V133.333H433.333V200ZM566.667 666.667C553.481 666.667 540.592 662.757 529.629 655.431C518.666 648.106 510.121 637.694 505.075 625.512C500.029 613.331 498.709 599.926 501.281 586.994C503.853 574.062 510.203 562.183 519.526 552.86C528.85 543.536 540.729 537.187 553.661 534.614C566.593 532.042 579.997 533.362 592.179 538.408C604.361 543.454 614.773 551.999 622.098 562.962C629.424 573.925 633.333 586.815 633.333 600C633.333 617.681 626.31 634.638 613.807 647.14C601.305 659.643 584.348 666.667 566.667 666.667ZM700 533.333H681.467C672.863 518.103 661.301 504.747 647.46 494.051C633.619 483.354 617.778 475.534 600.871 471.049C583.963 466.564 566.329 465.506 549.006 467.936C531.683 470.366 515.021 476.236 500 485.2V233.333H616.667L700 344.433V533.333Z" fill="white"/>
</svg>
