<svg width="800" height="800" viewBox="0 0 800 800" fill="none" xmlns="http://www.w3.org/2000/svg">
<path d="M400 33.3333C327.48 33.3333 256.589 54.8379 196.291 95.1277C135.993 135.418 88.9963 192.683 61.2442 259.683C33.492 326.682 26.2308 400.407 40.3787 471.533C54.5267 542.659 89.4483 607.993 140.728 659.272C192.007 710.552 257.341 745.473 328.467 759.621C399.593 773.769 473.318 766.508 540.317 738.756C607.317 711.004 664.582 664.007 704.872 603.709C745.162 543.411 766.667 472.52 766.667 400C766.552 302.789 727.884 209.593 659.146 140.854C590.407 72.1156 497.211 33.4479 400 33.3333ZM400 700C344.198 699.924 289.523 684.286 242.121 654.843C194.719 625.401 156.467 583.321 131.667 533.333H668.333C643.533 583.321 605.281 625.401 557.879 654.843C510.477 684.286 455.802 699.924 400 700ZM692.267 466.667H419.333L295.6 250C293.411 246.2 290.496 242.869 287.02 240.196C283.543 237.524 279.575 235.562 275.341 234.423C266.789 232.122 257.674 233.313 250 237.733C246.2 239.922 242.869 242.838 240.196 246.314C237.524 249.79 235.562 253.758 234.423 257.993C232.122 266.544 233.313 275.66 237.733 283.333L342.567 466.667H107.733C97.5482 422.681 97.4222 376.965 107.365 332.924C117.307 288.884 137.062 247.655 165.156 212.312C193.251 176.969 228.96 148.423 269.622 128.801C310.284 109.18 354.851 98.9894 400 98.9894C445.149 98.9894 489.716 109.18 530.378 128.801C571.04 148.423 606.749 176.969 634.844 212.312C662.938 247.655 682.693 288.884 692.635 332.924C702.578 376.965 702.452 422.681 692.267 466.667Z" fill="white"/>
</svg>
