<svg width="800" height="800" viewBox="0 0 800 800" fill="none" xmlns="http://www.w3.org/2000/svg">
<path d="M400 600C439.556 600 478.224 588.27 511.114 566.294C544.004 544.318 569.638 513.082 584.776 476.537C599.913 439.991 603.874 399.778 596.157 360.982C588.44 322.186 569.392 286.549 541.421 258.579C513.451 230.608 477.814 211.56 439.018 203.843C400.222 196.126 360.009 200.087 323.463 215.224C286.918 230.362 255.682 255.996 233.706 288.886C211.73 321.776 200 360.444 200 400C200.053 453.027 221.141 503.867 258.637 541.363C296.133 578.859 346.973 599.947 400 600ZM400 266.667C426.371 266.667 452.149 274.487 474.076 289.137C496.003 303.788 513.092 324.612 523.184 348.976C533.276 373.339 535.916 400.148 530.771 426.012C525.627 451.876 512.928 475.634 494.281 494.281C475.634 512.928 451.876 525.627 426.012 530.771C400.148 535.916 373.339 533.276 348.976 523.184C324.612 513.092 303.788 496.003 289.137 474.076C274.487 452.149 266.667 426.371 266.667 400C266.667 364.638 280.714 330.724 305.719 305.719C330.724 280.714 364.638 266.667 400 266.667ZM366.667 100V66.6667C366.667 57.8262 370.179 49.3477 376.43 43.0965C382.681 36.8453 391.159 33.3334 400 33.3334C408.841 33.3334 417.319 36.8453 423.57 43.0965C429.821 49.3477 433.333 57.8262 433.333 66.6667V100C433.333 108.841 429.821 117.319 423.57 123.57C417.319 129.821 408.841 133.333 400 133.333C391.159 133.333 382.681 129.821 376.43 123.57C370.179 117.319 366.667 108.841 366.667 100ZM400 666.667C408.841 666.667 417.319 670.179 423.57 676.43C429.821 682.681 433.333 691.159 433.333 700V733.333C433.333 742.174 429.821 750.652 423.57 756.904C417.319 763.155 408.841 766.667 400 766.667C391.159 766.667 382.681 763.155 376.43 756.904C370.179 750.652 366.667 742.174 366.667 733.333V700C366.667 691.159 370.179 682.681 376.43 676.43C382.681 670.179 391.159 666.667 400 666.667ZM588.567 211.433C582.318 205.182 578.807 196.706 578.807 187.867C578.807 179.028 582.318 170.551 588.567 164.3L612.133 140.733C618.42 134.661 626.84 131.302 635.58 131.378C644.32 131.454 652.68 134.959 658.861 141.139C665.041 147.32 668.547 155.68 668.622 164.42C668.698 173.16 665.339 181.58 659.267 187.867L635.7 211.433C629.449 217.682 620.972 221.193 612.133 221.193C603.295 221.193 594.818 217.682 588.567 211.433ZM211.433 588.567C217.682 594.818 221.193 603.295 221.193 612.133C221.193 620.972 217.682 629.449 211.433 635.7L187.867 659.267C181.58 665.339 173.16 668.698 164.42 668.622C155.68 668.547 147.32 665.041 141.139 658.861C134.959 652.68 131.454 644.32 131.378 635.58C131.302 626.84 134.661 618.42 140.733 612.133L164.3 588.567C170.551 582.318 179.028 578.807 187.867 578.807C196.706 578.807 205.182 582.318 211.433 588.567ZM766.667 400C766.667 408.841 763.155 417.319 756.904 423.57C750.652 429.821 742.174 433.333 733.333 433.333H700C691.159 433.333 682.681 429.821 676.43 423.57C670.179 417.319 666.667 408.841 666.667 400C666.667 391.159 670.179 382.681 676.43 376.43C682.681 370.179 691.159 366.667 700 366.667H733.333C742.174 366.667 750.652 370.179 756.904 376.43C763.155 382.681 766.667 391.159 766.667 400ZM33.3334 400C33.3334 391.159 36.8453 382.681 43.0965 376.43C49.3477 370.179 57.8262 366.667 66.6667 366.667H100C108.841 366.667 117.319 370.179 123.57 376.43C129.821 382.681 133.333 391.159 133.333 400C133.333 408.841 129.821 417.319 123.57 423.57C117.319 429.821 108.841 433.333 100 433.333H66.6667C57.8262 433.333 49.3477 429.821 43.0965 423.57C36.8453 417.319 33.3334 408.841 33.3334 400ZM635.7 588.567L659.267 612.133C662.45 615.208 664.99 618.886 666.737 622.953C668.484 627.02 669.403 631.394 669.442 635.82C669.48 640.246 668.637 644.635 666.961 648.732C665.285 652.828 662.81 656.55 659.68 659.68C656.55 662.81 652.828 665.285 648.732 666.961C644.635 668.637 640.246 669.48 635.82 669.442C631.394 669.403 627.02 668.484 622.953 666.737C618.886 664.99 615.208 662.45 612.133 659.267L588.567 635.7C582.495 629.413 579.135 620.993 579.211 612.253C579.287 603.513 582.792 595.153 588.973 588.973C595.153 582.792 603.513 579.287 612.253 579.211C620.993 579.135 629.413 582.495 635.7 588.567ZM140.733 187.867C134.661 181.58 131.302 173.16 131.378 164.42C131.454 155.68 134.959 147.32 141.139 141.139C147.32 134.959 155.68 131.454 164.42 131.378C173.16 131.302 181.58 134.661 187.867 140.733L211.433 164.3C214.617 167.375 217.156 171.053 218.903 175.12C220.65 179.187 221.57 183.561 221.608 187.987C221.647 192.413 220.803 196.802 219.127 200.899C217.451 204.995 214.976 208.717 211.847 211.847C208.717 214.976 204.995 217.451 200.899 219.127C196.802 220.803 192.413 221.647 187.987 221.608C183.561 221.57 179.187 220.65 175.12 218.903C171.053 217.156 167.375 214.617 164.3 211.433L140.733 187.867Z" fill="white"/>
</svg>
